<svg width="27" height="27" viewBox="0 0 27 27" fill="none" xmlns="http://www.w3.org/2000/svg">
<circle cx="13.5417" cy="13.5418" r="13.4583" fill="#828282"/>
<g clip-path="url(#clip0_1_10)">
<path d="M14.3828 19.8504H12.3544C12.0155 19.8504 11.7399 19.5748 11.7399 19.236V14.6607H10.5565C10.2177 14.6607 9.94206 14.385 9.94206 14.0462V12.0857C9.94206 11.7469 10.2177 11.4713 10.5565 11.4713H11.7399V10.4895C11.7399 9.5161 12.0456 8.6879 12.6238 8.09464C13.2046 7.49866 14.0163 7.18372 14.9711 7.18372L16.5181 7.18623C16.8563 7.18681 17.1314 7.46242 17.1314 7.80066V9.62095C17.1314 9.95977 16.8559 10.2354 16.5172 10.2354L15.4756 10.2358C15.158 10.2358 15.0771 10.2995 15.0598 10.319C15.0313 10.3513 14.9973 10.4429 14.9973 10.6956V11.4712H16.4389C16.5474 11.4712 16.6526 11.498 16.7429 11.5484C16.9379 11.6573 17.059 11.8633 17.059 12.0858L17.0583 14.0463C17.0583 14.385 16.7826 14.6606 16.4438 14.6606H14.9973V19.236C14.9973 19.5748 14.7216 19.8504 14.3828 19.8504V19.8504ZM12.4825 19.1078H14.2547V14.3282C14.2547 14.102 14.4388 13.918 14.6649 13.918H16.3157L16.3164 12.2139H14.6648C14.4387 12.2139 14.2547 12.0299 14.2547 11.8036V10.6956C14.2547 10.4055 14.2841 10.0755 14.5031 9.82757C14.7677 9.52779 15.1847 9.49319 15.4754 9.49319L16.3888 9.49281V7.92861L14.9705 7.92629C13.436 7.92629 12.4825 8.90853 12.4825 10.4895V11.8036C12.4825 12.0298 12.2985 12.2139 12.0724 12.2139H10.6846V13.918H12.0724C12.2985 13.918 12.4825 14.102 12.4825 14.3282V19.1078ZM16.5166 7.9288H16.5167H16.5166Z" fill="white"/>
</g>
<defs>
<clipPath id="clip0_1_10">
<rect width="12.6419" height="12.6667" fill="white" transform="translate(7.20833 7.20846)"/>
</clipPath>
</defs>
</svg>
