<svg width="27" height="27" viewBox="0 0 27 27" fill="none" xmlns="http://www.w3.org/2000/svg">
<circle cx="13.4583" cy="13.5418" r="13.4583" fill="#828282"/>
<path d="M13.6439 5.77864C10.6496 5.77864 7.8062 5.51759 6.72014 8.24929C6.27153 9.37752 6.33667 10.8428 6.33667 12.9408C6.33667 14.7819 6.27647 16.5122 6.72014 17.6316C7.80373 20.3649 10.6702 20.103 13.6423 20.103C16.5096 20.103 19.466 20.3956 20.5652 17.6316C21.0147 16.492 20.9487 15.0486 20.9487 12.9408C20.9487 10.1429 21.1062 8.33657 19.7216 6.98042C18.3197 5.6065 16.4238 5.77864 13.6406 5.77864H13.6439ZM13.4584 6.93553C19 6.93553 20.1875 6.54759 19.7917 15.858C19.3959 18.9614 16.788 19.1252 13.6439 19.1252C8.13691 19.1252 7.36271 18.5735 7.2426 12.9408C7.10627 6.54759 9.1042 6.93553 13.4584 6.93553ZM17.5445 8.25817C17.0605 8.25817 16.6679 8.64287 16.6679 9.11728C16.6679 9.59169 17.0605 9.97639 17.5445 9.97639C18.0286 9.97639 18.4211 9.59169 18.4211 9.11728C18.4211 8.64287 18.0286 8.25817 17.5445 8.25817ZM13.6439 9.26276C11.5716 9.26276 9.89175 10.9099 9.89175 12.9408C9.89175 14.9718 11.5716 16.6181 13.6439 16.6181C15.7163 16.6181 17.3953 14.9718 17.3953 12.9408C17.3953 10.9099 15.7163 9.26276 13.6439 9.26276ZM13.6439 10.5534C16.8642 10.5534 16.8683 15.3282 13.6439 15.3282C10.4245 15.3282 10.4195 10.5534 13.6439 10.5534Z" fill="white"/>
</svg>
