<svg width="27" height="27" viewBox="0 0 27 27" fill="none" xmlns="http://www.w3.org/2000/svg">
<circle cx="13.4583" cy="13.4583" r="13.4583" fill="#828282"/>
<g clip-path="url(#clip0_1_723)">
<path d="M19.7838 8.39069C19.6128 8.18155 19.3567 8.06641 19.0625 8.06641C18.9026 8.06641 18.7332 8.10005 18.5591 8.1666L6.7084 12.6904C6.07949 12.9304 5.99479 13.2906 6.00024 13.4839C6.00568 13.6772 6.11068 14.032 6.75219 14.2362C6.75603 14.2373 6.75988 14.2385 6.76372 14.2396L9.22188 14.943L10.5513 18.7445C10.7325 19.2627 11.1394 19.5846 11.6132 19.5846C11.9119 19.5846 12.2058 19.4595 12.463 19.2228L13.9834 17.8228L16.1888 19.5985C16.189 19.5987 16.1893 19.5988 16.1895 19.5991L16.2105 19.6159C16.2124 19.6174 16.2144 19.619 16.2163 19.6205C16.4615 19.8107 16.729 19.9111 16.9904 19.9112H16.9905C17.5012 19.9112 17.9078 19.5332 18.0263 18.9483L19.968 9.36043C20.046 8.97559 19.9806 8.63123 19.7838 8.39069V8.39069ZM10.0442 14.8094L14.7868 12.3866L11.8337 15.5244C11.7854 15.5758 11.7511 15.6387 11.7342 15.7072L11.1648 18.0137L10.0442 14.8094ZM11.9072 18.6193C11.8876 18.6373 11.8678 18.6535 11.8481 18.6683L12.3763 16.5287L13.3373 17.3025L11.9072 18.6193ZM19.164 9.19754L17.2223 18.7855C17.2036 18.8772 17.1439 19.0907 16.9904 19.0907C16.9146 19.0907 16.8193 19.0494 16.7218 18.9743L14.2228 16.9622C14.2225 16.9619 14.2221 16.9616 14.2216 16.9613L12.7347 15.764L17.0051 11.2263C17.1419 11.0811 17.1542 10.8586 17.0345 10.699C16.9147 10.5394 16.6975 10.4892 16.5199 10.58L9.49618 14.1682L7.00458 13.4554L18.8517 8.93297C18.9518 8.89473 19.0216 8.88672 19.0625 8.88672C19.0876 8.88672 19.1323 8.88971 19.1488 8.91011C19.1706 8.93671 19.1984 9.02739 19.164 9.19754V9.19754Z" fill="white"/>
</g>
<defs>
<clipPath id="clip0_1_723">
<rect width="14" height="14" fill="white" transform="translate(6 7)"/>
</clipPath>
</defs>
</svg>
