<svg width="33" height="30" viewBox="0 0 33 30" fill="none" xmlns="http://www.w3.org/2000/svg">
<path d="M15.2243 29.5102C15.5773 29.8261 16.0303 30 16.5001 30C16.9696 30 17.4228 29.8261 17.7755 29.5107C19.1117 28.3167 20.399 27.1956 21.535 26.2066L21.5354 26.2062C24.8594 23.3117 27.7299 20.812 29.7273 18.3491C31.9603 15.5961 33.0001 12.9856 33.0001 10.1339C33.0001 7.36314 32.0705 4.80697 30.3824 2.93589C28.6742 1.04269 26.3299 0 23.7815 0C21.8766 0 20.1321 0.615374 18.5966 1.82889C17.8214 2.44143 17.1192 3.1911 16.5001 4.06553C15.8812 3.1911 15.1788 2.44143 14.4038 1.82889C12.8683 0.615374 11.1238 0 9.21887 0C6.6702 0 4.32623 1.04269 2.61797 2.93589C0.929848 4.80697 6.10353e-05 7.36314 6.10353e-05 10.1339C6.10353e-05 12.9856 1.04012 15.5961 3.27307 18.3493C5.27062 20.8121 8.14155 23.3122 11.4662 26.2072L11.472 26.2123C12.6059 27.1997 13.8912 28.319 15.2243 29.5102Z" fill="red"/>
</svg>
