<svg width="33" height="30" viewBox="0 0 33 30" fill="none" xmlns="http://www.w3.org/2000/svg">
<path fill-rule="evenodd" clip-rule="evenodd" d="M16.5001 30C16.0303 30 15.5773 29.8261 15.2243 29.5102C13.8912 28.319 12.6059 27.1997 11.472 26.2123L11.4662 26.2072C8.14155 23.3122 5.27062 20.8121 3.27307 18.3493C1.04012 15.5961 6.10353e-05 12.9856 6.10353e-05 10.1339C6.10353e-05 7.36314 0.929848 4.80697 2.61797 2.93589C4.32623 1.04269 6.6702 0 9.21887 0C11.1238 0 12.8683 0.615374 14.4038 1.82889C15.1788 2.44143 15.8812 3.1911 16.5001 4.06553C17.1192 3.1911 17.8214 2.44143 18.5966 1.82889C20.1321 0.615374 21.8766 0 23.7815 0C26.3299 0 28.6742 1.04269 30.3824 2.93589C32.0705 4.80697 33.0001 7.36314 33.0001 10.1339C33.0001 12.9856 31.9603 15.5961 29.7273 18.3491C27.7299 20.812 24.8594 23.3117 21.5354 26.2062L21.535 26.2066C20.399 27.1956 19.1117 28.3167 17.7755 29.5107C17.4228 29.8261 16.9696 30 16.5001 30ZM16.5 28C16.0871 28 15.6891 27.8493 15.3789 27.5755C14.2074 26.5432 13.0779 25.5731 12.0814 24.7173L12.0763 24.7129C9.15464 22.2039 6.6317 20.0371 4.87628 17.9027C2.91399 15.5166 2 13.2542 2 10.7827C2 8.38138 2.81709 6.16604 4.30058 4.54444C5.80178 2.90366 7.86164 2 10.1014 2C11.7754 2 13.3084 2.53332 14.6579 3.58503C15.3389 4.11591 15.9562 4.76562 16.5 5.52346C17.0441 4.76562 17.6611 4.11591 18.3424 3.58503C19.6918 2.53332 21.2248 2 22.8988 2C25.1384 2 27.1984 2.90366 28.6996 4.54444C30.1831 6.16604 31 8.38138 31 10.7827C31 13.2542 30.0862 15.5166 28.1239 17.9025C26.3686 20.037 23.846 22.2035 20.925 24.7121L20.9246 24.7124C19.9263 25.5695 18.7951 26.5412 17.6209 27.5759C17.3109 27.8493 16.9126 28 16.5 28Z" fill="#956D84"/>
</svg>
