<svg width="82" height="22" viewBox="0 0 82 22" fill="none" xmlns="http://www.w3.org/2000/svg">
<g filter="url(#filter0_d_4_2)">
<path d="M11.5 1.61803L12.7083 5.33688L12.8206 5.68237H13.1839H17.0941L13.9306 7.98075L13.6367 8.19427L13.749 8.53976L14.9573 12.2586L11.7939 9.96024L11.5 9.74671L11.2061 9.96024L8.04267 12.2586L9.25099 8.53976L9.36325 8.19427L9.06936 7.98075L5.90592 5.68237H9.81614H10.1794L10.2917 5.33688L11.5 1.61803Z" stroke="#808080"/>
<path d="M26.5 1.61803L27.7083 5.33688L27.8206 5.68237H28.1839H32.0941L28.9306 7.98075L28.6367 8.19427L28.749 8.53976L29.9573 12.2586L26.7939 9.96024L26.5 9.74671L26.2061 9.96024L23.0427 12.2586L24.251 8.53976L24.3633 8.19427L24.0694 7.98075L20.9059 5.68237H24.8161H25.1794L25.2917 5.33688L26.5 1.61803Z" stroke="#808080"/>
<path d="M41.5 1.61803L42.7083 5.33688L42.8206 5.68237H43.1839H47.0941L43.9306 7.98075L43.6367 8.19427L43.749 8.53976L44.9573 12.2586L41.7939 9.96024L41.5 9.74671L41.2061 9.96024L38.0427 12.2586L39.251 8.53976L39.3633 8.19427L39.0694 7.98075L35.9059 5.68237H39.8161H40.1794L40.2917 5.33688L41.5 1.61803Z" stroke="#808080"/>
<path d="M55.5 1.61803L56.7083 5.33688L56.8206 5.68237H57.1839H61.0941L57.9306 7.98075L57.6367 8.19427L57.749 8.53976L58.9573 12.2586L55.7939 9.96024L55.5 9.74671L55.2061 9.96024L52.0427 12.2586L53.251 8.53976L53.3633 8.19427L53.0694 7.98075L49.9059 5.68237H53.8161H54.1794L54.2917 5.33688L55.5 1.61803Z" stroke="#808080"/>
<path d="M70.5 1.61803L71.7083 5.33688L71.8206 5.68237H72.1839H76.0941L72.9306 7.98075L72.6367 8.19427L72.749 8.53976L73.9573 12.2586L70.7939 9.96024L70.5 9.74671L70.2061 9.96024L67.0427 12.2586L68.251 8.53976L68.3633 8.19427L68.0694 7.98075L64.9059 5.68237H68.8161H69.1794L69.2917 5.33688L70.5 1.61803Z" stroke="#808080"/>
</g>
<defs>
<filter id="filter0_d_4_2" x="0.367077" y="0" width="81.2658" height="21.5676" filterUnits="userSpaceOnUse" color-interpolation-filters="sRGB">
<feFlood flood-opacity="0" result="BackgroundImageFix"/>
<feColorMatrix in="SourceAlpha" type="matrix" values="0 0 0 0 0 0 0 0 0 0 0 0 0 0 0 0 0 0 127 0" result="hardAlpha"/>
<feOffset dy="4"/>
<feGaussianBlur stdDeviation="2"/>
<feComposite in2="hardAlpha" operator="out"/>
<feColorMatrix type="matrix" values="0 0 0 0 0 0 0 0 0 0 0 0 0 0 0 0 0 0 0.25 0"/>
<feBlend mode="normal" in2="BackgroundImageFix" result="effect1_dropShadow_4_2"/>
<feBlend mode="normal" in="SourceGraphic" in2="effect1_dropShadow_4_2" result="shape"/>
</filter>
</defs>
</svg>
